# Blender v2.91.2 OBJ File: ''
# www.blender.org
mtllib untitled.mtl
o Circle.001
v 0.000000 0.072812 -0.902453
v -0.451226 0.072812 -0.781547
v -0.781547 0.072812 -0.451226
v -0.902453 0.072812 0.000000
v -0.781547 0.072812 0.451226
v -0.451226 0.072812 0.781547
v -0.000000 0.072812 0.902453
v 0.451226 0.072812 0.781547
v 0.781547 0.072812 0.451227
v 0.902453 0.072812 0.000000
v 0.781547 0.072812 -0.451226
v 0.451227 0.072812 -0.781547
v 0.000000 8.592814 -0.642190
v -0.321095 8.592814 -0.556153
v -0.216882 8.592814 -0.125217
v -0.642190 8.592814 0.000000
v -0.556153 8.592814 0.321095
v -0.125217 8.592814 0.216882
v -0.000000 8.592814 0.642190
v 0.321095 8.592814 0.556153
v 0.216882 8.592814 0.125217
v 0.642190 8.592814 0.000000
v 0.556153 8.592814 -0.321095
v 0.125217 8.592814 -0.216882
v -0.902453 0.322339 0.000000
v -0.781547 0.322339 0.451226
v 0.781547 0.322339 -0.451226
v 0.451227 0.322339 -0.781547
v 0.000000 0.322339 -0.902453
v -0.451226 0.322339 -0.781547
v 0.451226 0.322339 0.781547
v 0.781547 0.322339 0.451227
v -0.451226 0.322339 0.781547
v -0.781547 0.322339 -0.451226
v 0.902453 0.322339 0.000000
v -0.000000 0.322339 0.902453
v -0.642190 0.407591 0.000000
v 0.556153 0.407591 -0.321095
v 0.000000 0.407591 -0.642190
v 0.321095 0.407591 0.556153
v -0.556153 0.407591 0.321095
v 0.125217 0.407591 -0.216882
v -0.321095 0.407591 -0.556153
v 0.216882 0.407591 0.125217
v -0.125217 0.407591 0.216882
v -0.216882 0.407591 -0.125217
v 0.642190 0.407591 0.000000
v -0.000000 0.407591 0.642190
v 0.000000 8.592814 -1.323600
v -0.661800 8.592814 -1.146271
v -1.146271 8.592814 -0.661800
v -1.323600 8.592814 0.000000
v -1.146271 8.592814 0.661800
v -0.661800 8.592814 1.146271
v -0.000000 8.592814 1.323600
v 0.661800 8.592814 1.146271
v 1.146271 8.592814 0.661800
v 1.323600 8.592814 0.000001
v 1.146271 8.592814 -0.661799
v 0.661801 8.592814 -1.146271
v 0.661801 8.753800 -1.146271
v 1.146271 8.753800 -0.661799
v 1.323600 8.753800 0.000001
v 1.146271 8.753800 0.661800
v 0.661800 8.753800 1.146271
v -0.000000 8.753800 1.323600
v -0.661800 8.753800 1.146271
v -1.146271 8.753800 0.661800
v -1.323600 8.753800 0.000000
v -1.146271 8.753800 -0.661800
v -0.661800 8.753800 -1.146271
v 0.000000 8.753800 -1.323600
vt 0.000000 0.000000
vt 0.000000 0.000000
vt 0.000000 0.000000
vt 0.000000 0.000000
vt 0.000000 0.000000
vt 0.000000 0.000000
vt 0.000000 0.000000
vt 0.000000 0.000000
vt 0.000000 0.000000
vt 0.000000 0.000000
vt 0.000000 0.000000
vt 0.000000 0.000000
vt 0.000000 0.000000
vt 0.000000 0.000000
vt 0.000000 0.000000
vt 0.000000 0.000000
vt 0.000000 0.000000
vt 0.000000 0.000000
vt 0.000000 0.000000
vt 0.000000 0.000000
vt 0.000000 0.000000
vt 0.000000 0.000000
vt 0.000000 0.000000
vt 0.000000 0.000000
vt 0.000000 0.000000
vt 0.000000 0.000000
vt 0.000000 0.000000
vt 0.000000 0.000000
vt 0.000000 0.000000
vt 0.000000 0.000000
vt 0.000000 0.000000
vt 0.000000 0.000000
vt 0.000000 0.000000
vt 0.000000 0.000000
vt 0.000000 0.000000
vt 0.000000 0.000000
vt 0.000000 0.000000
vt 0.000000 0.000000
vt 0.000000 0.000000
vt 0.000000 0.000000
vt 0.000000 0.000000
vt 0.000000 0.000000
vt 0.000000 0.000000
vt 0.000000 0.000000
vt 0.000000 0.000000
vt 0.000000 0.000000
vt 0.000000 0.000000
vt 0.000000 0.000000
vt 0.000000 0.000000
vt 0.000000 0.000000
vt 0.000000 0.000000
vt 0.000000 0.000000
vt 0.000000 0.000000
vt 0.000000 0.000000
vt 0.000000 0.000000
vt 0.000000 0.000000
vt 0.000000 0.000000
vt 0.000000 0.000000
vt 0.000000 0.000000
vt 0.000000 0.000000
vt 0.000000 0.000000
vt 0.000000 0.000000
vt 0.000000 0.000000
vt 0.000000 0.000000
vt 0.000000 0.000000
vt 0.000000 0.000000
vt 0.000000 0.000000
vt 0.000000 0.000000
vt 0.000000 0.000000
vt 0.000000 0.000000
vt 0.000000 0.000000
vt 0.000000 0.000000
vn 0.9659 0.0000 -0.2588
vn 0.2351 0.0000 0.9720
vn 0.2588 0.0000 0.9659
vn -0.9720 0.0000 0.2351
vn -0.2351 0.0000 -0.9720
vn -0.9593 0.0000 0.2824
vn 0.9720 0.0000 -0.2351
vn -0.2824 0.0000 -0.9593
vn 0.9593 0.0000 -0.2824
vn 0.2824 0.0000 0.9593
vn -0.9659 0.0000 0.2588
vn -0.2588 0.0000 -0.9659
vn 0.0000 1.0000 -0.0000
vn 0.9659 0.0000 0.2588
vn 0.2588 0.0000 -0.9659
vn -0.9659 0.0000 -0.2588
vn 0.7071 0.0000 0.7071
vn -0.2588 0.0000 0.9659
vn 0.7071 0.0000 -0.7071
vn -0.7071 0.0000 -0.7071
vn -0.7071 0.0000 0.7071
vn -0.0831 -0.9470 -0.3102
vn -0.3102 -0.9470 0.0831
vn 0.1473 -0.9792 0.1395
vn 0.1395 -0.9792 -0.1473
vn -0.1473 -0.9792 -0.1395
vn 0.1945 -0.9792 0.0578
vn -0.1395 -0.9792 0.1473
vn 0.0578 -0.9792 -0.1945
vn -0.1945 -0.9792 -0.0578
vn 0.0831 -0.9470 0.3102
vn -0.0578 -0.9792 0.1945
vn 0.3102 -0.9470 -0.0831
vn 0.0000 -1.0000 0.0000
usemtl None
s off
f 41/1/1 37/2/1 16/3/1 17/4/1
f 42/5/2 38/6/2 23/7/2 24/8/2
f 43/9/3 39/10/3 13/11/3 14/12/3
f 44/13/4 40/14/4 20/15/4 21/16/4
f 45/17/5 41/1/5 17/4/5 18/18/5
f 39/10/6 42/5/6 24/8/6 13/11/6
f 46/19/7 43/9/7 14/12/7 15/20/7
f 47/21/8 44/13/8 21/16/8 22/22/8
f 48/23/9 45/17/9 18/18/9 19/24/9
f 37/2/10 46/19/10 15/20/10 16/3/10
f 38/6/11 47/21/11 22/22/11 23/7/11
f 40/14/12 48/23/12 19/24/12 20/15/12
f 2/25/13 3/26/13 4/27/13 5/28/13 6/29/13 7/30/13 8/31/13 9/32/13 10/33/13 11/34/13 12/35/13 1/36/13
f 8/31/12 7/30/12 36/37/12 31/38/12
f 11/34/11 10/33/11 35/39/11 27/40/11
f 4/27/14 3/26/14 34/41/14 25/42/14
f 7/30/15 6/29/15 33/43/15 36/37/15
f 10/33/16 9/32/16 32/44/16 35/39/16
f 3/26/17 2/25/17 30/45/17 34/41/17
f 1/36/18 12/35/18 28/46/18 29/47/18
f 6/29/19 5/28/19 26/48/19 33/43/19
f 9/32/20 8/31/20 31/38/20 32/44/20
f 2/25/3 1/36/3 29/47/3 30/45/3
f 12/35/21 11/34/21 27/40/21 28/46/21
f 5/28/1 4/27/1 25/42/1 26/48/1
f 31/38/22 36/37/22 48/23/22 40/14/22
f 27/40/23 35/39/23 47/21/23 38/6/23
f 25/42/24 34/41/24 46/19/24 37/2/24
f 36/37/25 33/43/25 45/17/25 48/23/25
f 35/39/26 32/44/26 44/13/26 47/21/26
f 34/41/27 30/45/27 43/9/27 46/19/27
f 29/47/28 28/46/28 42/5/28 39/10/28
f 33/43/29 26/48/29 41/1/29 45/17/29
f 32/44/30 31/38/30 40/14/30 44/13/30
f 30/45/31 29/47/31 39/10/31 43/9/31
f 28/46/32 27/40/32 38/6/32 42/5/32
f 26/48/33 25/42/33 37/2/33 41/1/33
f 55/49/15 54/50/15 67/51/15 66/52/15
f 22/22/13 21/16/13 57/53/13 58/54/13
f 51/55/17 50/56/17 71/57/17 70/58/17
f 15/20/13 14/12/13 50/56/13 51/55/13
f 56/59/12 55/49/12 66/52/12 65/60/12
f 23/7/13 22/22/13 58/54/13 59/61/13
f 52/62/14 51/55/14 70/58/14 69/63/14
f 16/3/13 15/20/13 51/55/13 52/62/13
f 58/54/16 57/53/16 64/64/16 63/65/16
f 24/8/13 23/7/13 59/61/13 60/66/13
f 54/50/19 53/67/19 68/68/19 67/51/19
f 17/4/13 16/3/13 52/62/13 53/67/13
f 60/66/21 59/61/21 62/69/21 61/70/21
f 13/11/13 24/8/13 60/66/13 49/71/13
f 18/18/13 17/4/13 53/67/13 54/50/13
f 50/56/3 49/71/3 72/72/3 71/57/3
f 49/71/18 60/66/18 61/70/18 72/72/18
f 19/24/13 18/18/13 54/50/13 55/49/13
f 20/15/13 19/24/13 55/49/13 56/59/13
f 53/67/1 52/62/1 69/63/1 68/68/1
f 21/16/13 20/15/13 56/59/13 57/53/13
f 14/12/13 13/11/13 49/71/13 50/56/13
f 59/61/11 58/54/11 63/65/11 62/69/11
f 57/53/20 56/59/20 65/60/20 64/64/20
f 62/69/34 63/65/34 64/64/34 65/60/34 66/52/34 67/51/34 68/68/34 69/63/34 70/58/34 71/57/34 72/72/34 61/70/34
